#!OML:ASF X:\für Bonn\!DataBase\2005_08_10_Bjorn_Final\c3d\bjorn.ASF
:FULLY-SPECIFIED
:DEGREES
125
root -0.709262 19.5459 3.82973 -184.568 -23.8151 187.343
lowerback 1.54974 -3.47187 -5.36345
upperback 10.7775 -5.38288 -1.33804
thorax 11.0003 -3.46237 1.01256
lowerneck -5.56197 -2.79376 1.14299
upperneck 21.0789 -6.79936 6.18948
head 7.58582 -3.16513 1.20261
rclavicle 8.11041e-014 -2.54444e-014
rhumerus -37.0744 -22.8729 -74.8618
rradius 23.2303
rwrist 24.3442
rhand -5.25439 12.9863
rfingers 7.12502
rthumb 20.549 -15.9462
lclavicle 8.11041e-014 -2.54444e-014
lhumerus -6.53766 -28.5936 71.5091
lradius 37.5649
lwrist -17.4055
lhand -16.5637 -12.0591
lfingers 7.12502
lthumb 9.65634 17.6995
rfemur -33.1121 -8.24019 18.0707
rtibia 71.7815
rfoot -4.62044 1.38076
rtoes -23.4303
lfemur -4.66821 10.3033 -11.7004
ltibia 21.3028
lfoot -3.44305 -28.1259
ltoes 4.48332
126
root -0.723485 19.5307 3.79423 -184.01 -22.9823 187.093
lowerback 0.565327 -3.37765 -5.2586
upperback 10.4885 -5.13142 -1.29484
thorax 11.2363 -3.29458 0.967016
lowerneck -5.57697 -2.68097 1.21533
upperneck 21.4235 -6.65072 5.87165
head 7.68433 -3.11797 1.09565
rclavicle -1.11319e-014 -5.40694e-014
rhumerus -36.8438 -23.2225 -74.8284
rradius 23.4168
rwrist 24.3122
rhand -5.38035 12.9307
rfingers 7.12502
rthumb 20.4279 -16.0148
lclavicle -1.11319e-014 -5.40694e-014
lhumerus -8.32343 -28.8005 72.5845
lradius 35.4305
lwrist -19.783
lhand -14.311 -11.9674
lfingers 7.12502
lthumb 11.8292 17.6785
rfemur -31.7109 -8.09086 18.1243
rtibia 69.3759
rfoot -5.20831 1.0115
rtoes -23.1615
lfemur -5.18352 11.6615 -11.7976
ltibia 21.886
lfoot -3.54522 -28.869
ltoes 4.68158
127
root -0.736616 19.5127 3.75961 -183.48 -22.1296 186.866
lowerback -0.396148 -3.26808 -5.12278
upperback 10.2279 -4.87259 -1.24117
thorax 11.4922 -3.12537 0.921743
lowerneck -5.62257 -2.58711 1.19476
upperneck 21.7427 -6.52209 5.6167
head 7.786 -3.08097 1.0224
rclavicle 1.11319e-014 3.18055e-014
rhumerus -36.5273 -23.5836 -74.7907
rradius 23.5073
rwrist 24.293
rhand -5.52256 12.9341
rfingers 7.12502
rthumb 20.2913 -16.026
lclavicle 1.11319e-014 3.18055e-014
lhumerus -9.99299 -28.4786 73.7187
lradius 33.172
lwrist -22.4801
lhand -12.1653 -12.1497
lfingers 7.12502
lthumb 13.8977 17.3659
rfemur -30.328 -7.97989 18.184
rtibia 66.9527
rfoot -5.76625 0.710061
rtoes -22.7295
lfemur -5.70383 13.0729 -11.8731
ltibia 22.5178
lfoot -3.57778 -29.6782
ltoes 5.05805
128
root -0.748642 19.4907 3.72734 -182.926 -21.2779 186.624
lowerback -1.34188 -3.1459 -4.96201
upperback 9.96138 -4.60015 -1.23328
thorax 11.7271 -2.94568 0.822861
lowerneck -5.66566 -2.48604 1.29334
upperneck 22.0911 -6.40743 5.35153
head 7.89507 -3.04532 0.923889
rclavicle 1.55052e-014 9.54166e-015
rhumerus -36.1531 -24.0579 -74.7919
rradius 23.4148
rwrist 24.4426
rhand -5.77171 13.0171
rfingers 7.12502
rthumb 20.0518 -15.9683
lclavicle 1.55052e-014 9.54166e-015
lhumerus -11.55 -27.5105 74.7749
lradius 30.7766
lwrist -25.7391
lhand -10.1147 -12.5413
lfingers 7.12502
lthumb 15.8732 16.8281
rfemur -29.009 -7.91979 18.2329
rtibia 64.5204
rfoot -6.33593 0.40763
rtoes -21.9635
lfemur -6.30116 14.3277 -12.0093
ltibia 23.2156
lfoot -3.66028 -30.3344
ltoes 5.55288
129
root -0.760134 19.4681 3.69645 -182.404 -20.4116 186.364
lowerback -2.25187 -3.01961 -4.80989
upperback 9.74363 -4.33554 -1.24138
thorax 12.0006 -2.776 0.714776
lowerneck -5.74623 -2.39161 1.41896
upperneck 22.3519 -6.28122 5.07741
head 7.98108 -2.99976 0.819035
rclavicle -6.75868e-015 3.97569e-014
rhumerus -35.6776 -24.5018 -74.8799
rradius 23.309
rwrist 24.5643
rhand -5.98621 13.1087
rfingers 7.12502
rthumb 19.8456 -15.8981
lclavicle -6.75868e-015 3.97569e-014
lhumerus -12.9022 -25.8644 75.6973
lradius 28.2415
lwrist -29.5811
lhand -8.46513 -12.8667
lfingers 7.12502
lthumb 17.4612 16.369
rfemur -27.6807 -7.8971 18.2594
rtibia 62.0823
rfoot -6.97237 0.166807
rtoes -20.986
lfemur -6.80303 15.4441 -12.1885
ltibia 23.9617
lfoot -4.40053 -30.8208
ltoes 4.85239
130
root -0.769967 19.4436 3.66682 -181.892 -19.5147 186.113
lowerback -3.10836 -2.89407 -4.6968
upperback 9.50585 -4.07808 -1.20308
thorax 12.2293 -2.61607 0.687724
lowerneck -5.8147 -2.30225 1.45371
upperneck 22.653 -6.14004 4.74368
head 8.07867 -2.96005 0.710724
rclavicle -1.07344e-014 1.08139e-013
rhumerus -35.1895 -24.7972 -74.9423
rradius 23.1865
rwrist 24.6585
rhand -6.23785 13.2417
rfingers 7.12502
rthumb 19.6037 -15.7899
lclavicle -1.07344e-014 1.08139e-013
lhumerus -14.1578 -23.5783 76.544
lradius 25.6108
lwrist -33.7965
lhand -7.15662 -13.1616
lfingers 7.12502
lthumb 18.7202 15.9577
rfemur -26.4082 -7.92095 18.2986
rtibia 59.6484
rfoot -7.63204 0.0564089
rtoes -20.2795
lfemur -7.33622 16.5244 -12.3812
ltibia 24.7436
lfoot -5.1875 -31.2601
ltoes 4.07603
131
root -0.779839 19.416 3.63935 -181.379 -18.6115 185.845
lowerback -3.93888 -2.75897 -4.57197
upperback 9.28679 -3.81466 -1.19439
thorax 12.4623 -2.45364 0.628524
lowerneck -5.93782 -2.2192 1.58334
upperneck 22.9863 -6.01057 4.34731
head 8.19405 -2.92293 0.562894
rclavicle 1.98785e-014 -4.77083e-015
rhumerus -34.7053 -25.2538 -75.0098
rradius 23.0887
rwrist 24.9637
rhand -6.44232 13.3705
rfingers 7.12502
rthumb 19.4071 -15.681
lclavicle 1.98785e-014 -4.77083e-015
lhumerus -15.1144 -20.4578 77.0869
lradius 22.762
lwrist -38.4669
lhand -6.3514 -13.491
lfingers 7.12502
lthumb 19.4945 15.5517
rfemur -25.2071 -8.08272 18.3254
rtibia 57.2366
rfoot -8.30656 0.0754626
rtoes -19.9853
lfemur -7.8892 17.5635 -12.6233
ltibia 25.537
lfoot -6.03088 -31.6233
ltoes 3.30278
132
root -0.788384 19.3871 3.6129 -180.869 -17.6966 185.563
lowerback -4.71244 -2.6337 -4.49641
upperback 9.06128 -3.56883 -1.16066
thorax 12.6616 -2.30699 0.629638
lowerneck -6.08356 -2.12193 1.67671
upperneck 23.3401 -5.84762 3.91368
head 8.32056 -2.87643 0.410541
rclavicle -5.1684e-015 -3.18055e-015
rhumerus -34.1956 -25.6457 -75.0659
rradius 22.9836
rwrist 25.2502
rhand -6.69012 13.5012
rfingers 7.12502
rthumb 19.1688 -15.5742
lclavicle -5.1684e-015 -3.18055e-015
lhumerus -15.8762 -15.8992 77.2897
lradius 19.8106
lwrist -43.9661
lhand -5.99701 -13.7976
lfingers 7.12502
lthumb 19.8352 15.2102
rfemur -24.0673 -8.37086 18.3502
rtibia 54.8712
rfoot -9.01737 0.216345
rtoes -20.315
lfemur -8.447 18.3742 -12.9177
ltibia 26.304
lfoot -6.8702 -31.7579
ltoes 2.7552
